<mxfile host="app.diagrams.net" modified="2023-09-05T03:58:55.737Z" agent="Mozilla/5.0 (Windows NT 10.0; Win64; x64) AppleWebKit/537.36 (KHTML, like Gecko) Chrome/116.0.0.0 Safari/537.36" version="21.7.2" etag="rUqGbre-uRPhtFYBVvlO" type="github">
  <diagram name="Trang-1" id="WFIihLOgldMrhacXAB-0">
    <mxGraphModel>
      <root>
        <mxCell id="0" />
        <mxCell id="1" parent="0" />
      </root>
    </mxGraphModel>
  </diagram>
</mxfile>
